<svg width="16" height="16" viewBox="0 0 16 16" fill="none"
  xmlns="http://www.w3.org/2000/svg">
  <path fill-rule="evenodd" clip-rule="evenodd" d="M6.40002 3.20001C4.63271 3.20001 3.20002 4.63269 3.20002 6.40001C3.20002 8.16732 4.63271 9.60001 6.40002 9.60001C8.16733 9.60001 9.60002 8.16732 9.60002 6.40001C9.60002 4.63269 8.16733 3.20001 6.40002 3.20001ZM1.60002 6.40001C1.60002 3.74904 3.74905 1.60001 6.40002 1.60001C9.05099 1.60001 11.2 3.74904 11.2 6.40001C11.2 7.43667 10.8714 8.39658 10.3126 9.18123L14.1657 13.0343C14.4781 13.3467 14.4781 13.8533 14.1657 14.1657C13.8533 14.4781 13.3468 14.4781 13.0343 14.1657L9.18125 10.3126C8.39659 10.8714 7.43669 11.2 6.40002 11.2C3.74905 11.2 1.60002 9.05097 1.60002 6.40001Z" fill="#6F7794"/>
</svg>
